<?xml version="1.0" encoding="UTF-8"?><svg id="Layer_2" xmlns="http://www.w3.org/2000/svg" viewBox="0 0 181 97.5"><defs><style>.cls-1{fill:#fab523;}.cls-2{fill:#fcfdfd;}.cls-3{fill:#fff;}</style></defs><g id="Layer_1-2"><g><path class="cls-1" d="M126.7,46.49c-.53,.61-.23,1.34-.25,2-.06,2.74,.15,5.48-.18,8.22-.08,.64-.09,1.31-.8,1.64-3.27-1.09-6.68-.87-10.04-1.05-.79-.04-1.02,.33-1.02,1.07,0,7.43-.02,14.87,0,22.3,0,.53-.21,1.34,.73,1.34,.87,0,1.22-.54,1.19-1.39-.1-3.03,.12-6.07-.2-9.1-.16-1.51-.4-3.09,.46-4.76,1.92,2.36,3.8,4.55,5.31,7.03-5.21,12.54-14.46,20.17-27.85,22.49-11.3,1.96-22.56,1.67-33.65-1.52-7.75-2.23-14.54-6.12-20.08-12.05-.32-.34-.8-.59-.85-1.14,.55-2.96-.11-5.93,.07-8.9,.07-1.14-.15-2.31,.27-3.64,.33,.49,.58,.78,.75,1.1,1.78,3.4,3.56,6.8,5.32,10.2,.6,1.15,4.54,2.01,5.58,1.19,.4-.32,.35-.78,.33-1.2-.06-1.3-.21-2.59-.21-3.89-.03-6.19-.04-12.37,0-18.56,0-1.35-.26-2.1-1.87-1.67-.82,.22-1.73,.18-2.59,.13-1.4-.07-1.99,.63-2.02,1.92-.02,.93,0,1.85,0,2.78-.15,.04-.3,.09-.45,.13-.15-.22-.36-.43-.44-.67-1.19-3.65-3.69-4.67-7.31-3.9-1.02,.22-1.37,.44-1.35,1.47,.05,3.09,.09,6.19,0,9.28-.09,3.03,.28,6.07-.11,9.1-2.77-3.53-4.43-7.6-5.71-11.85-.2-.67-.37-1.35-.55-2.03,.77-.32,2,.66,2.38-.6,.42-1.41,.11-2.96-.38-4.25-.34-.91-1.75-.24-2.67-.41-.21-.04-.42-.05-.63-.07,.41-.47,.27-1.02,.23-1.55-.7-9.57,.95-18.71,5.57-27.12,6.43-11.69,15.12-21.13,27.84-26.19,2.2-.88,4.5-1.55,6.9-1.69,.54-.03,1.06-.12,1.37-.65h.98c2.28,.33,4.56,.32,6.84,0h.65c1.29,.65,2.71,.46,4.07,.6,9.89,1.01,19.15,3.85,27.62,9.17,6.71,4.22,10.7,10.4,13.24,17.7,.19,.54,.14,1.19,.66,1.6,.34,1.35,.68,2.71,1.01,4.06,.04,.42,.07,.85,.13,1.27,.44,3.08,1.26,6.12,1.04,9.27-.61-.05-1.36-.88-1.77,.21-.32,.85,.04,1.43,.93,1.75,.54,.2,1.02,.56,1.53,.85Zm-33.83,23.62c0-.66,.12-1.66-.02-2.61-.69-4.59-2.77-8.12-7.44-9.72-2.29-.79-4.62-.28-6.93-.44-1.5-.1-2.02,.47-1.89,1.97,.42,4.93-.46,9.87,.17,14.84,.22,1.76-.04,3.74-.17,5.62-.11,1.53,.57,2.02,2.01,1.95,1.64-.08,3.28-.33,4.89-.46,1.6-.13,3.06-.38,4.4-1.13,3.79-2.12,5.45-5.39,4.98-10.02ZM34.25,34.66c-.14,3.98,.58,7.63,3.76,10.42,3.89,3.41,9.2,3.14,12.11-1.47,1.46-2.32,1.67-4.87,1.94-7.44,.09-.85-.56-1.22-1.34-1.33-2.14-.29-4.29-.56-6.43-.87-1.26-.18-1.2,.83-1.43,1.54-.29,.92,.37,.93,1,.99,.53,.05,1.12,.06,1.39,.65,.33,.72-.73,2.86-1.59,3.1-1.14,.31-1.89-.24-2.25-1.3-.88-2.57-.71-5.14,.34-7.61,.69-1.63,1.72-1.73,2.77-.31,.55,.76,.9,.83,1.67,.31,1.25-.84,2.56-1.63,3.92-2.27,1.35-.64,1.4-1.48,.72-2.59-1.57-2.52-3.35-4.54-6.75-4.54-3.98,0-6.73,1.61-8.47,5.29-1.1,2.33-1.48,4.85-1.35,7.42Zm74.11-7.35c2.19,3.19,3.62,6.74,5.24,10.18,1.31,2.78,2.45,5.65,3.62,8.5,.52,1.28,1.57,.94,2.49,.91,1.15-.04,.77-.99,.77-1.6,0-1.08-.17-2.16-.17-3.24-.03-6.13-.06-12.26-.03-18.39,0-1.15-.14-1.8-1.53-1.84-1.45-.04-1.42,.8-1.42,1.77,0,3.96,0,7.92-.01,11.88,0,1.42,0,2.84,0,4.4-.7-.49-.9-1.05-1.17-1.57-2.09-4.03-3.92-8.19-5.71-12.36-1.78-4.16-1.74-4.17-6.17-4.16-.11,0-.22,.01-.33,0-1.55-.22-1.97,.54-1.93,1.98,.05,2.38,.15,4.8-.14,7.15-.62,4.97-.52,9.95-.55,14.93,0,1.09,.53,1.42,1.51,1.39,1.36-.04,2.72-.12,4.07-.03,1.4,.09,1.71-.48,1.68-1.8-.15-6.02,.05-12.04-.21-18.11Zm-5.04,54.4s0-.01,0-.02c1.84,0,3.69,0,5.53,0,.49,0,1.11,.12,1.33-.37,.52-1.15,.38-2.46,.32-3.63-.04-.84-1.36-.8-2.24-.8-2.93,0-5.86-.04-8.79,0-1.05,.02-1.16-.58-1.09-1.35,.06-.67-.36-1.62,.93-1.64,1.78-.03,3.53-.36,5.32-.37,3.44-.02,2.77,.56,2.92-2.92,.04-.92-.31-1-1.1-.97-2.22,.07-4.45-.03-6.67,.05-1.18,.04-1.5-.44-1.45-1.51,.08-1.46,.12-2.93,.07-4.39-.03-.99,.31-1.33,1.31-1.3,2.44,.06,4.88,.02,7.32,.02,3.64,0,3.61,0,3.38-3.7-.07-1.06-.41-1.54-1.56-1.52-3.63,.06-7.27,.07-10.9,.02-1.05-.01-1.28,.43-1.27,1.36,.03,1.84-.07,3.68,0,5.51,.19,5.37-.49,10.71-.26,16.08,.05,1.12,.36,1.54,1.51,1.49,1.79-.08,3.58-.02,5.37-.02ZM62.38,46.89s0-.01,0-.02c1.3,0,2.6,.02,3.9,0,3.66-.07,3.06,.65,3.18-3.18,.03-1.04-.27-1.42-1.37-1.4-3.09,.07-6.18,.02-9.27,.01-.71,0-1.55,.11-1.38-1.01,.13-.86-.71-2.1,1.07-2.35,2.28-.32,4.54-.18,6.81-.21,1.39-.02,1.72-.56,1.15-1.82-.13-.28-.46-.57-.43-.82,.18-1.25,.21-1.27-1.16-1.27-2.01,0-4.01,.01-6.02,.06-1,.02-1.52-.32-1.47-1.41,.06-1.35,.02-2.71,.03-4.06,0-1.18,.5-1.77,1.78-1.74,2.33,.06,4.67,.09,6.99-.02,1.05-.05,2.42,.94,3.03-.08,.51-.84,.12-2.21,.21-3.34,.11-1.34-.44-1.74-1.77-1.81-3.31-.16-6.59,.52-9.89,.28-1.65-.12-2.12,.37-2.13,2.03-.02,4.38,.24,8.77-.13,13.15-.21,2.47-.03,4.98-.01,7.48,0,1.07,.38,1.65,1.65,1.55,1.73-.13,3.47-.03,5.2-.03Zm8.57,34.81c2.95,.04,3.04-.08,2.34-2.55-.06-.21-.13-.42-.22-.61-3.09-6.7-5.18-13.76-7.28-20.81-.24-.8-.62-1.16-1.48-1.14-.82,.02-1.17,.26-1.45,1.11-1.4,4.2-2.96,8.35-4.41,12.53-1.16,3.36-2.23,6.75-3.39,10.1-.39,1.13-.06,1.48,1.07,1.36,1.35-.13,2.7-.26,4.05-.27,3.74-.04,7.48-.22,10.77,.27Zm16.3-56.97c-.39,1.4-1.2,2.42-1.98,3.44-4.16,5.46-8.33,10.9-12.48,16.36-.42,.55-.98,1.16-.67,1.9,.34,.8,1.15,.35,1.75,.38,5.14,.31,10.28-.64,15.43-.07,.63,.07,.84-.34,.89-.9,.07-.87-.47-.94-1.13-.96-3.9-.12-7.8-.38-11.7-.28-.53,.01-1.28,.23-1.53-.21-.33-.59,.16-1.21,.55-1.73,1.7-2.3,3.34-4.65,5.13-6.89,2.73-3.43,4.85-7.3,7.77-10.59,.51-.57,.54-1.35,.3-2.01-.28-.73-1.04-.32-1.58-.39-4.54-.6-9.1-.32-13.65-.31-.78,0-2.36-.89-2.26,1.03,.09,1.68,1.5,.83,2.28,.87,4.26,.18,8.54-.15,12.9,.36Zm8.16-2.29c-1.3,.03-2.57-.36-2.52,1.55,.16,6.6-.25,13.19-.69,19.77-.26,3.87-.46,3.39,3.73,3.42,.8,0,1.18-.36,1.17-1.19-.04-2.22,.05-4.45-.1-6.66-.33-4.82-.26-9.63,.26-14.42,.27-2.49,.39-2.48-1.84-2.48Z"/><path class="cls-2" d="M77.58,0c-2.28,.32-4.56,.33-6.84,0h6.84Z"/><path class="cls-3" d="M35.41,76.43c.39-3.03,.02-6.07,.11-9.1,.09-3.09,.05-6.18,0-9.28-.02-1.02,.33-1.25,1.35-1.47,3.62-.77,6.12,.26,7.31,3.9,.08,.25,.29,.45,.44,.67,.15-.04,.3-.09,.45-.13,0-.93-.02-1.85,0-2.78,.03-1.3,.63-1.99,2.02-1.92,.86,.04,1.77,.09,2.59-.13,1.61-.43,1.87,.32,1.87,1.67-.03,6.19-.02,12.37,0,18.56,0,1.3,.15,2.59,.21,3.89,.02,.42,.07,.88-.33,1.2-1.03,.82-4.98-.04-5.58-1.19-1.76-3.41-3.54-6.81-5.32-10.2-.17-.33-.42-.62-.75-1.1-.43,1.33-.21,2.49-.27,3.64-.18,2.97,.48,5.94-.07,8.9-.7-.25-1.39-.11-2.08,.06-1.3,.33-1.75-.2-1.73-1.49,.02-1.23,.14-2.49-.25-3.7Z"/><path class="cls-3" d="M149.19,61.52c0,1.4-.02,2.34,0,3.28,.11,5.15,.17,10.3,.36,15.44,.04,1.21-.31,1.65-1.47,1.66-1.3,.01-2.61,0-3.89,.17-1.75,.23-2.13-.63-2.13-2.14,0-3.8,.11-7.59,.39-11.37,.26-3.46,.59-6.92,.54-10.39-.02-1.21,.4-1.52,1.68-1.71,3.74-.58,5.42,1.1,6.72,4.45,1.87,4.82,4.1,9.52,6.82,14.02-.07-3.64-.05-7.27,0-10.9,.03-2.06,.08-4.12,.04-6.18-.02-.99,.31-1.35,1.32-1.24,.87,.1,1.66-.08,1.59,1.32-.35,7.37-.08,14.74,.12,22.11,.02,.58,.51,1.57-.65,1.65-.96,.07-2.04,.39-2.55-1.02-1.23-3.41-2.78-6.69-4.32-9.97-1.39-2.96-2.57-6.02-4.61-9.2Z"/><path class="cls-3" d="M27.85,57.21c.21,.02,.42,.03,.63,.07,.91,.17,2.32-.5,2.67,.41,.49,1.29,.8,2.84,.38,4.25-.38,1.27-1.6,.28-2.38,.6-2.87-.02-5.75-.03-8.62-.08-.71-.01-.94,.22-.93,.93,.02,1.73,0,3.47-.07,5.2-.04,.88,.32,1.1,1.14,1.08,2.17-.06,4.34,.01,6.51-.06,1.13-.04,1.78,.2,1.54,1.5-.07,.37-.06,.76,0,1.14,.17,1.15-.36,1.36-1.39,1.23-2.22-.27-4.43-.01-6.65,.1-1.93,.09-.85,1.46-1.07,2.26-.25,.89,.19,1.16,1.12,1.15,3.14-.05,6.29,.03,9.44,0,.99-.01,1.33,.26,1.27,1.31-.23,3.99,.66,3.34-3.49,3.37-2.98,.02-5.97-.03-8.95,.06-1.11,.04-1.38-.33-1.37-1.36,.05-7.16,.07-14.31,.06-21.47,0-1.29,.46-1.73,1.74-1.55,2.81,.39,5.62-.32,8.44-.14Z"/><path class="cls-3" d="M176.17,72.25c1.19,0,2.39,.05,3.58-.02,.95-.06,1.32,.37,1.24,1.23-.18,2.12-.51,4.18-1.91,5.93-2.93,3.7-8.36,3.69-11.2-.05-3.82-5.03-4.05-14.16-.46-18.98,3-4.04,8.05-4.48,10.98-1.01,.96,1.14,.98,1.96-.27,2.94-1.02,.8-1.59,.68-2.4-.26-2.11-2.46-4.68-2.2-6.1,.7-2.32,4.72-2.36,9.48,.35,14.1,.95,1.62,2.49,2.21,4.32,1.91,1.62-.27,2.69-1.22,3.34-2.75,.37-.88,.24-1.15-.73-1.13-1.41,.04-2.82-.03-4.23,0-.88,.02-1.4-.13-1.4-1.23,0-1.02,.35-1.34,1.32-1.3,1.19,.05,2.38,.01,3.58,.01v-.11Z"/><path class="cls-3" d="M8.42,69.57c1.39,.76,2.6,1.47,3.71,2.34,.93,.73,1.57,1.65,1.91,2.76,1.23,3.97-.66,6.72-4.93,7-2.65,.18-5.31,.11-7.97,.18-.81,.02-1.15-.23-1.14-1.11,.04-7.48,.05-14.96,.06-22.44,0-.51-.02-.92,.7-1.02,2.75-.39,5.47-.7,8.18,.28,1.56,.57,2.47,1.66,2.88,3.25,.97,3.72-.1,6.56-3.4,8.76Zm-4.1,5.92s-.05,0-.08,0c0,.54-.07,1.09,.01,1.62,.2,1.3-.59,3.22,.48,3.78,1.4,.73,3.28,.19,4.87-.45,1.94-.78,2.63-1.92,2.53-4.04-.17-3.7-3.69-6.72-7.3-6.3-.83,.1-.74,.65-.72,1.17,.05,1.41,.14,2.81,.21,4.22Zm.08-12h-.08c0,1.3,0,2.6,0,3.91q0,1.87,1.9,1.39c.21-.05,.43-.07,.64-.13,2.98-.92,4.39-3.35,3.83-6.61-.49-2.89-2.17-4.18-5.26-4.12-.76,.02-1.06,.22-1.04,1.01,.04,1.52,.01,3.04,.01,4.56Z"/><path class="cls-3" d="M124.84,33.13c-.34-1.35-.68-2.71-1.01-4.06,.82-2.45,1.96-4.61,4.5-5.78,3.34-1.54,6.86-1.09,9.52,1.27,.62,.55,.72,.92,.22,1.59-.53,.7-.92,.43-1.45,.04-1.96-1.42-4.04-2.32-6.53-1.48-2.87,.97-3.6,4.13-1.38,6.17,1.04,.96,2.26,1.63,3.6,2.13,2.69,1.01,5.29,2.31,5.97,5.43,.92,4.25-.39,6.94-4.13,8.09-2.49,.77-4.97,1.11-7.45-.05-.51-.29-.99-.66-1.53-.85-.89-.32-1.25-.9-.93-1.75,.41-1.09,1.16-.26,1.77-.21,1.51,1.7,3.4,1.85,5.46,1.37,1.49-.35,2.76-.89,3.12-2.62,.39-1.91-.48-3.08-2.06-3.96-2.74-1.52-5.51-3-7.69-5.34Z"/><path class="cls-3" d="M121.89,73.78c-1.52-2.47-3.4-4.67-5.31-7.03-.85,1.67-.62,3.25-.46,4.76,.32,3.03,.1,6.07,.2,9.1,.03,.85-.32,1.4-1.19,1.39-.94,0-.73-.82-.73-1.34-.01-7.43,.01-14.87,0-22.3,0-.74,.23-1.11,1.02-1.07,3.37,.17,6.77-.04,10.04,1.05,1.92,2.47,1.86,3.26-.45,5.89-1.89,.81-3.9,1.19-6.2,1.39,1.69,1.83,2.66,3.79,4.24,5.27,1.97,3.24,4.47,6.07,6.71,9.1,.38,.51,1.47,.88,.81,1.72-.55,.7-2.43,.29-3-.49-1.69-2.31-3.38-4.61-5.09-6.91-.15-.21-.4-.35-.6-.52Zm-5.57-12.15c0,.5,0,1.05,0,1.59,0,.48,.12,.89,.7,.87,2.16-.08,4.34-.12,6.35-1.07,.59-.28,.83-.79,.82-1.46-.01-.69-.28-1.14-.91-1.39-1-.4-1.99-.87-3.02-1.15-1.24-.33-2.5,.13-3.64,.46-.64,.18-.16,1.39-.3,2.16Z"/><path class="cls-3" d="M133.86,69.51c0-3.62,.04-7.25-.02-10.87-.02-1.24,.43-1.55,1.63-1.52,2.81,.08,2.9,.02,2.63,2.78-.66,6.75-.13,13.51-.18,20.27-.01,1.32-.26,1.86-1.66,1.8-3.54-.15-3.5,.62-3.23-3.39,.2-3.02,.36-6.05,.54-9.07h.29Z"/><path class="cls-1" d="M123.06,70.88c-1.58-1.48-2.55-3.43-4.24-5.27,2.3-.19,4.31-.57,6.2-1.39-.3,2.32-.92,4.55-1.96,6.65Z"/><path class="cls-3" d="M92.87,70.11c.47,4.63-1.19,7.91-4.98,10.02-1.34,.75-2.8,1-4.4,1.13-1.62,.13-3.25,.37-4.89,.46-1.44,.07-2.12-.42-2.01-1.95,.13-1.88,.39-3.86,.17-5.62-.63-4.97,.25-9.91-.17-14.84-.13-1.51,.4-2.08,1.89-1.97,2.31,.16,4.63-.34,6.93,.44,4.66,1.6,6.75,5.13,7.44,9.72,.14,.95,.02,1.95,.02,2.61Zm-10.24,3.93c2.38-1.15,3.65-3.21,3.39-5.54-.17-1.52-.83-2.77-2.34-3.41-.48-.2-.89-.24-.87,.43,.09,2.82-.55,5.64-.18,8.52Z"/><path class="cls-3" d="M34.25,34.66c-.13-2.57,.25-5.1,1.35-7.42,1.73-3.68,4.48-5.3,8.47-5.29,3.4,0,5.18,2.03,6.75,4.54,.69,1.1,.64,1.95-.72,2.59-1.36,.64-2.67,1.43-3.92,2.27-.77,.52-1.11,.44-1.67-.31-1.04-1.42-2.08-1.32-2.77,.31-1.05,2.47-1.22,5.04-.34,7.61,.36,1.06,1.12,1.62,2.25,1.3,.86-.24,1.92-2.38,1.59-3.1-.27-.59-.86-.6-1.39-.65-.63-.06-1.29-.08-1-.99,.23-.71,.17-1.72,1.43-1.54,2.14,.31,4.29,.58,6.43,.87,.78,.11,1.43,.48,1.34,1.33-.27,2.57-.48,5.12-1.94,7.44-2.91,4.61-8.22,4.88-12.11,1.47-3.19-2.8-3.9-6.44-3.76-10.42Z"/><path class="cls-3" d="M108.36,27.31c.25,6.07,.05,12.1,.21,18.11,.03,1.31-.28,1.89-1.68,1.8-1.35-.09-2.71-.01-4.07,.03-.99,.03-1.52-.3-1.51-1.39,.03-4.98-.07-9.96,.55-14.93,.29-2.36,.2-4.77,.14-7.15-.03-1.44,.38-2.2,1.93-1.98,.11,.01,.22,0,.33,0,4.43,0,4.39,0,6.17,4.16,1.79,4.17,3.62,8.33,5.71,12.36,.27,.52,.48,1.08,1.17,1.57,0-1.56,0-2.98,0-4.4,0-3.96,.01-7.92,.01-11.88,0-.97-.03-1.81,1.42-1.77,1.39,.04,1.53,.69,1.53,1.84-.03,6.13,0,12.26,.03,18.39,0,1.08,.17,2.16,.17,3.24,0,.62,.38,1.57-.77,1.6-.92,.03-1.96,.37-2.49-.91-1.16-2.85-2.3-5.72-3.62-8.5-1.62-3.44-3.05-6.99-5.24-10.18Z"/><path class="cls-3" d="M103.32,81.71c-1.79,0-3.58-.06-5.37,.02-1.15,.05-1.46-.37-1.51-1.49-.23-5.37,.44-10.72,.26-16.08-.06-1.83,.04-3.67,0-5.51-.02-.93,.21-1.37,1.27-1.36,3.63,.05,7.27,.04,10.9-.02,1.15-.02,1.49,.46,1.56,1.52,.23,3.71,.26,3.71-3.38,3.7-2.44,0-4.88,.04-7.32-.02-1-.02-1.34,.32-1.31,1.3,.04,1.46,0,2.93-.07,4.39-.06,1.08,.27,1.56,1.45,1.51,2.22-.08,4.45,.01,6.67-.05,.79-.02,1.14,.06,1.1,.97-.14,3.48,.52,2.9-2.92,2.92-1.79,.01-3.54,.34-5.32,.37-1.29,.02-.86,.98-.93,1.64-.07,.77,.03,1.36,1.09,1.35,2.93-.04,5.86,0,8.79,0,.88,0,2.2-.04,2.24,.8,.06,1.17,.2,2.48-.32,3.63-.23,.5-.85,.37-1.33,.37-1.84,0-3.69,0-5.53,0,0,0,0,.01,0,.02Z"/><path class="cls-3" d="M62.38,46.89c-1.74,0-3.48-.1-5.2,.03-1.27,.1-1.64-.48-1.65-1.55-.02-2.49-.2-5,.01-7.48,.38-4.39,.11-8.77,.13-13.15,0-1.66,.48-2.15,2.13-2.03,3.29,.23,6.58-.44,9.89-.28,1.33,.06,1.88,.47,1.77,1.81-.09,1.13,.3,2.5-.21,3.34-.62,1.02-1.98,.03-3.03,.08-2.33,.12-4.66,.08-6.99,.02-1.28-.03-1.78,.55-1.78,1.74,0,1.35,.04,2.71-.03,4.06-.05,1.09,.47,1.43,1.47,1.41,2.01-.04,4.01-.06,6.02-.06,1.37,0,1.33,.01,1.16,1.27-.03,.25,.3,.54,.43,.82,.58,1.26,.24,1.8-1.15,1.82-2.27,.03-4.54-.11-6.81,.21-1.78,.25-.94,1.49-1.07,2.35-.17,1.12,.67,1.01,1.38,1.01,3.09,0,6.18,.05,9.27-.01,1.1-.02,1.4,.35,1.37,1.4-.12,3.83,.48,3.11-3.18,3.18-1.3,.03-2.6,0-3.9,0,0,0,0,.01,0,.02Z"/><path class="cls-3" d="M70.95,81.71c-3.29-.49-7.03-.31-10.77-.27-1.35,.01-2.7,.14-4.05,.27-1.13,.11-1.47-.23-1.07-1.36,1.16-3.36,2.23-6.75,3.39-10.1,1.45-4.18,3-8.33,4.41-12.53,.28-.85,.64-1.09,1.45-1.11,.86-.02,1.25,.34,1.48,1.14,2.1,7.05,4.19,14.1,7.28,20.81,.09,.2,.16,.4,.22,.61,.7,2.46,.61,2.59-2.34,2.55Zm-6.47-20.66c-.92,3.42-1.82,6.41-2.52,9.44-.52,2.27-1.34,4.44-1.88,6.7-.16,.67-.47,1.63,.84,1.6,2.32-.05,4.65,.11,6.96-.34,.99-.2,1.19-.62,.92-1.55-.74-2.54-1.35-5.12-2.13-7.66-.78-2.57-1-5.28-2.21-8.2Z"/><path class="cls-3" d="M87.25,24.74c-4.36-.52-8.64-.18-12.9-.36-.79-.03-2.19,.81-2.28-.87-.1-1.92,1.48-1.02,2.26-1.03,4.55-.01,9.11-.29,13.65,.31,.55,.07,1.31-.34,1.58,.39,.25,.66,.21,1.44-.3,2.01-2.92,3.29-5.04,7.16-7.77,10.59-1.78,2.24-3.42,4.59-5.13,6.89-.39,.52-.87,1.15-.55,1.73,.25,.45,1,.23,1.53,.21,3.91-.1,7.8,.16,11.7,.28,.67,.02,1.2,.1,1.13,.96-.05,.57-.26,.97-.89,.9-5.15-.57-10.28,.38-15.43,.07-.59-.04-1.4,.42-1.75-.38-.32-.74,.25-1.35,.67-1.9,4.15-5.46,8.32-10.91,12.48-16.36,.78-1.02,1.58-2.03,1.98-3.44Z"/><path class="cls-3" d="M95.41,22.45c2.23,0,2.11-.01,1.84,2.48-.52,4.79-.59,9.6-.26,14.42,.15,2.21,.06,4.44,.1,6.66,.02,.83-.36,1.19-1.17,1.19-4.2-.02-3.99,.45-3.73-3.42,.44-6.58,.85-13.17,.69-19.77-.05-1.9,1.22-1.51,2.52-1.55Z"/><path class="cls-1" d="M116.32,61.63c.14-.77-.34-1.97,.3-2.16,1.15-.33,2.4-.79,3.64-.46,1.04,.28,2.02,.75,3.02,1.15,.63,.25,.9,.7,.91,1.39,0,.68-.23,1.18-.82,1.46-2.01,.96-4.19,.99-6.35,1.07-.59,.02-.7-.39-.7-.87,0-.54,0-1.08,0-1.59Z"/><path class="cls-1" d="M82.63,74.04c-.37-2.88,.27-5.69,.18-8.52-.02-.67,.4-.63,.87-.43,1.51,.64,2.17,1.89,2.34,3.41,.26,2.33-1.01,4.39-3.39,5.54Z"/><path class="cls-1" d="M64.48,61.05c1.21,2.92,1.43,5.63,2.21,8.2,.77,2.53,1.38,5.11,2.13,7.66,.27,.93,.08,1.35-.92,1.55-2.31,.46-4.64,.29-6.96,.34-1.31,.03-1-.93-.84-1.6,.54-2.26,1.36-4.43,1.88-6.7,.69-3.04,1.59-6.03,2.52-9.44Z"/></g></g></svg>